<mxfile host="app.diagrams.net" agent="Mozilla/5.0 (Macintosh; Intel Mac OS X 10_15_7) AppleWebKit/537.36 (KHTML, like Gecko) Chrome/134.0.0.0 Safari/537.36" version="26.0.16">
  <diagram id="R2lEEEUBdFMjLlhIrx00" name="Page-1">
    <mxGraphModel dx="624" dy="989" grid="1" gridSize="10" guides="1" tooltips="1" connect="1" arrows="1" fold="1" page="0" pageScale="1" pageWidth="850" pageHeight="1100" math="0" shadow="0" extFonts="Permanent Marker^https://fonts.googleapis.com/css?family=Permanent+Marker">
      <root>
        <mxCell id="0" />
        <mxCell id="1" parent="0" />
        <mxCell id="eq48D7rv5CO64Ts3hX2F-63" value="Modificare lo schema in figura decomponendo la relazione ed aggiungendo ulteriori entità, se necessario; &#xa;indicare le cardinalità delle relazioni e eventuali necessità di identificatori esterni, tenendo conto delle seguenti specifiche: &#xa;    › per ogni materia possono esistere più corsi, tenuti dallo stesso professore o da professori diversi; &#xa;    › ogni corso è relativo ad una e una sola materia; › ogni professore tiene zero o più corsi; &#xa;    › ogni corso ha uno e un solo professore ed è offerto ad uno e un solo corso di studio; &#xa;    › per ogni corso di studio esiste al più un corso di una data materia; &#xa;    › tutti i corsi di una data materia hanno lo stesso libro di testo (uno e uno solo)." style="text;whiteSpace=wrap;" vertex="1" parent="1">
          <mxGeometry x="110" y="-250" width="560" height="170" as="geometry" />
        </mxCell>
        <mxCell id="eq48D7rv5CO64Ts3hX2F-64" value="" style="rounded=1;whiteSpace=wrap;html=1;" vertex="1" parent="1">
          <mxGeometry x="90" y="40" width="120" height="60" as="geometry" />
        </mxCell>
      </root>
    </mxGraphModel>
  </diagram>
</mxfile>
